<?xml version="1.0" encoding="UTF-8" standalone="no"?><!-- Generator: Gravit.io --><svg xmlns="http://www.w3.org/2000/svg" xmlns:xlink="http://www.w3.org/1999/xlink" style="isolation:isolate" viewBox="720 1504 26 26" width="26pt" height="26pt"><path d=" M 741.125 1504 L 724.875 1504 C 722.183 1504.001 720.001 1506.183 720 1508.875 L 720 1525.125 C 720.001 1527.817 722.183 1529.999 724.875 1530 L 741.125 1530 C 743.817 1529.999 745.999 1527.817 746 1525.125 L 746 1508.875 C 745.999 1506.183 743.817 1504.001 741.125 1504 L 741.125 1504 Z  M 741.125 1518.004 L 738.03 1518.004 L 738.03 1527.008 L 733.97 1527.008 L 733.97 1518.004 L 730 1518 L 730 1514.969 L 733.968 1514.969 L 733.968 1513.035 C 733.968 1510.504 735.018 1509 738.007 1509 L 741.03 1509 L 741.03 1512.023 L 739.272 1512.023 C 738.112 1512.023 738.034 1512.453 738.034 1513.266 L 738.03 1514.969 L 742 1514.969 L 741.125 1518.004 Z " fill="#FAFAFA"/></svg>