<?xml version="1.0" encoding="UTF-8" standalone="no"?><!-- Generator: Gravit.io --><svg xmlns="http://www.w3.org/2000/svg" xmlns:xlink="http://www.w3.org/1999/xlink" style="isolation:isolate" viewBox="707 1523 26 26" width="26pt" height="26pt"><path d=" M 714.547 1523 C 710.39 1523 707 1526.39 707 1530.547 L 707 1541.453 C 707 1545.61 710.39 1549 714.547 1549 L 725.453 1549 C 729.61 1549 733 1545.61 733 1541.453 L 733 1530.547 C 733 1526.39 729.61 1523 725.453 1523 L 714.547 1523 Z  M 714.547 1525 L 725.453 1525 C 726.926 1524.995 728.339 1525.578 729.38 1526.62 C 730.422 1527.661 731.005 1529.074 731 1530.547 L 731 1541.453 C 731.005 1542.926 730.422 1544.339 729.38 1545.38 C 728.339 1546.422 726.926 1547.005 725.453 1547 L 714.547 1547 C 713.074 1547.005 711.661 1546.422 710.62 1545.38 C 709.578 1544.339 708.995 1542.926 709 1541.453 L 709 1530.547 C 708.995 1529.074 709.578 1527.661 710.62 1526.62 C 711.661 1525.578 713.074 1524.995 714.547 1525 L 714.547 1525 Z  M 727.5 1527 C 726.672 1527 726 1527.672 726 1528.5 C 726 1529.328 726.672 1530 727.5 1530 C 728.328 1530 729 1529.328 729 1528.5 C 729 1527.672 728.328 1527 727.5 1527 Z  M 720 1529 C 716.145 1529 713 1532.145 713 1536 C 713 1539.855 716.145 1543 720 1543 C 723.855 1543 727 1539.855 727 1536 C 727 1532.145 723.855 1529 720 1529 Z  M 720 1531 C 722.773 1531 725 1533.227 725 1536 C 725 1538.773 722.773 1541 720 1541 C 717.227 1541 715 1538.773 715 1536 C 715 1533.227 717.227 1531 720 1531 Z " fill="#FAFAFA"/></svg>