<?xml version="1.0" encoding="UTF-8" standalone="no"?>
<!-- Generator: Gravit.io -->
<svg xmlns="http://www.w3.org/2000/svg" xmlns:xlink="http://www.w3.org/1999/xlink" style="isolation:isolate" viewBox="0 0 80 130" width="80pt" height="130pt"><defs><clipPath id="_clipPath_DCjBosR3cNuP0PF90QfA0jLzQDAfJtz7"><rect width="80" height="130"/></clipPath></defs><g clip-path="url(#_clipPath_DCjBosR3cNuP0PF90QfA0jLzQDAfJtz7)"><rect width="80" height="130" style="fill:rgb(61,66,67)"/><path d="M 15 50 L 40 50 L 40 70 L 10 70 L 10 55 C 10 52.24 12.24 50 15 50 Z" style="stroke:none;fill:#FAFAFA;stroke-miterlimit:10;"/><path d="M 15 10 L 40 10 L 40 30 L 15 30 C 12.24 30 10 27.76 10 25 L 10 15 C 10 12.24 12.24 10 15 10 Z" style="stroke:none;fill:#FAFAFA;stroke-miterlimit:10;"/><path d=" M 40 70 C 56.557 70 70 56.557 70 40 C 70 23.443 56.557 10 40 10 L 40 70 L 40 70 Z " fill="rgb(250,250,250)"/><path d="M 40 30 L 40 30 C 45.519 30 50 34.481 50 40 L 50 40 C 50 45.519 45.519 50 40 50 L 40 50 L 40 30 Z" style="stroke:none;fill:#3D4243;stroke-miterlimit:10;"/><path d="M 10 70 L 30 70 L 30 87.113 C 30 88.706 28.706 90 27.113 90 L 12.887 90 C 11.294 90 10 88.706 10 87.113 L 10 70 Z" style="stroke:none;fill:#FAFAFA;stroke-miterlimit:10;"/><path d="M 14.7 30 L 25.3 30 C 27.894 30 30 32.106 30 34.7 L 30 45.3 C 30 47.894 27.894 50 25.3 50 L 14.7 50 C 12.106 50 10 47.894 10 45.3 L 10 34.7 C 10 32.106 12.106 30 14.7 30 Z" style="stroke:none;fill:#FFD900;stroke-miterlimit:10;"/><path d="M 14.7 100 L 25.3 100 C 27.894 100 30 102.106 30 104.7 L 30 115.3 C 30 117.894 27.894 120 25.3 120 L 14.7 120 C 12.106 120 10 117.894 10 115.3 L 10 104.7 C 10 102.106 12.106 100 14.7 100 Z" style="stroke:none;fill:#FFD900;stroke-miterlimit:10;"/><rect x="30" y="70" width="10" height="10" transform="matrix(1,0,0,1,0,0)" fill="rgb(250,250,250)"/><rect x="39.5" y="10" width="1" height="20" transform="matrix(1,0,0,1,0,0)" fill="rgb(250,250,250)"/><rect x="39.5" y="30" width="1" height="20" transform="matrix(1,0,0,1,0,0)" fill="rgb(61,66,67)"/><rect x="39.5" y="50" width="1" height="20" transform="matrix(1,0,0,1,0,0)" fill="rgb(250,250,250)"/><rect x="10" y="69" width="20" height="2" transform="matrix(1,0,0,1,0,0)" fill="rgb(250,250,250)"/><rect x="24.75" y="65" width="10.5" height="10" transform="matrix(1,0,0,1,0,0)" fill="rgb(250,250,250)"/><path d="M 35 70 L 40 70 L 40 80 L 30 80 L 30 75 C 30 72.24 32.24 70 35 70 Z" style="stroke:none;fill:#3D4243;stroke-miterlimit:10;"/><rect x="39" y="70" width="1.5" height="10" transform="matrix(1,0,0,1,0,0)" fill="rgb(61,66,67)"/><rect x="30" y="79" width="10.5" height="2" transform="matrix(1,0,0,1,0,0)" fill="rgb(61,66,67)"/></g></svg>